<?xml version="1.0" standalone="no"?>
<!DOCTYPE svg PUBLIC "-//W3C//DTD SVG 20010904//EN"
 "http://www.w3.org/TR/2001/REC-SVG-20010904/DTD/svg10.dtd">
<svg version="1.0" xmlns="http://www.w3.org/2000/svg"
 width="1080.000000pt" height="1060.000000pt" viewBox="0 0 1080.000000 1060.000000"
 preserveAspectRatio="xMidYMid meet">

<g transform="translate(0.000000,1060.000000) scale(0.100000,-0.100000)"
fill="#000000" stroke="none">
<path d="M120 7443 c-19 -3 -38 -10 -42 -16 -4 -6 -23 -10 -43 -9 l-35 4 0
-1087 c0 -970 2 -1089 16 -1117 13 -25 20 -29 46 -26 23 4 33 0 45 -19 11 -16
23 -23 35 -20 12 4 18 0 19 -11 0 -14 2 -13 9 3 10 23 13 2209 4 2268 -4 20
-9 36 -13 35 -3 0 -22 -3 -41 -5z"/>
<path d="M2476 6433 c-4 -4 -199 -8 -434 -8 -387 -1 -430 -3 -461 -19 -18 -10
-36 -26 -38 -37 -3 -10 -9 -19 -14 -19 -17 0 -15 -862 1 -868 5 -2 5 -15 -1
-28 -5 -14 -9 -94 -9 -179 l0 -154 228 1 c125 0 234 -3 243 -6 20 -9 33 8 22
28 -9 16 -173 193 -321 345 -113 116 -147 173 -136 224 8 37 31 77 55 94 9 7
41 36 70 63 30 28 91 86 137 128 45 42 121 114 168 160 49 46 95 82 106 82 11
0 34 -17 51 -37 18 -20 46 -52 64 -71 35 -38 34 -55 -6 -87 -26 -20 -120 -107
-243 -224 -36 -36 -74 -68 -82 -73 -29 -16 -17 -40 57 -114 65 -67 99 -88 109
-66 8 19 309 292 322 292 23 0 85 -71 97 -112 21 -69 10 -85 -193 -275 -49
-45 -88 -88 -88 -95 1 -7 49 -64 109 -127 105 -111 131 -127 131 -80 0 17 3
18 20 9 11 -6 20 -15 20 -21 0 -6 9 -24 21 -40 l20 -29 454 0 c417 0 454 1
473 18 18 14 21 31 24 110 4 116 -2 122 -111 122 -42 0 -82 4 -89 9 -8 4 -25
42 -39 82 -14 41 -30 80 -35 87 -8 8 -52 12 -159 12 -171 0 -165 3 -193 -105
-8 -33 -23 -65 -33 -72 -10 -8 -50 -13 -104 -13 -96 0 -108 8 -83 55 8 15 14
32 14 39 0 6 22 68 49 139 27 70 53 141 56 158 4 17 18 56 32 87 28 64 43 104
83 222 61 179 61 178 88 187 15 4 70 6 122 3 l94 -5 41 -121 c23 -66 49 -136
58 -156 9 -20 17 -42 17 -50 0 -7 7 -22 15 -32 8 -11 15 -31 15 -45 0 -14 7
-39 15 -55 8 -15 15 -33 15 -40 1 -6 9 -29 20 -51 11 -22 19 -47 20 -55 0 -9
4 -20 10 -26 5 -5 14 -34 20 -64 10 -53 32 -90 54 -90 8 0 10 138 8 482 -3
427 -5 484 -19 500 -15 17 -48 18 -483 18 -257 0 -470 -3 -474 -7z m-49 -1065
c-3 -8 -6 -5 -6 6 -1 11 2 17 5 13 3 -3 4 -12 1 -19z m0 -40 c-3 -8 -6 -5 -6
6 -1 11 2 17 5 13 3 -3 4 -12 1 -19z m13 -102 c0 -24 -17 -28 -23 -6 -3 13 0
20 9 20 8 0 14 -6 14 -14z"/>
<path d="M4359 6423 c-11 -13 -14 -103 -14 -487 0 -259 1 -502 3 -541 1 -38 2
-116 2 -173 -1 -56 2 -107 5 -112 4 -6 179 -10 483 -10 417 0 480 2 500 16 12
8 35 22 50 30 22 11 24 14 7 14 -19 0 -20 7 -20 133 1 224 5 317 14 317 8 0
14 -19 29 -105 4 -22 12 -40 19 -40 22 0 27 -15 25 -80 -2 -58 0 -65 17 -65
23 0 31 18 20 45 -4 11 -8 31 -8 45 l0 25 24 -28 c26 -30 32 -47 15 -47 -5 0
-10 -7 -10 -15 0 -20 17 -19 28 2 9 15 11 14 23 -5 8 -12 21 -22 30 -22 9 0
24 -9 33 -19 10 -11 29 -22 42 -25 24 -6 24 -8 8 -24 -17 -16 -15 -17 37 -23
61 -7 93 3 39 12 -19 3 17 5 80 3 64 -1 106 1 95 6 -17 6 -14 9 16 15 21 4 45
2 57 -4 10 -6 22 -8 25 -4 4 3 28 5 55 5 37 -1 51 3 62 18 10 14 26 20 50 20
29 0 38 5 48 28 23 50 37 72 44 72 5 0 8 91 8 201 0 223 -9 279 -45 279 -21 0
-21 1 -8 88 21 139 26 209 18 229 -5 10 -7 21 -7 26 1 4 -2 7 -8 7 -5 0 -10 9
-10 19 0 23 -46 37 -66 20 -12 -9 -14 -5 -12 30 2 49 -2 54 -36 45 -25 -6 -25
-7 -9 -20 16 -13 10 -13 -47 -8 -36 4 -68 11 -71 16 -3 5 -17 4 -33 -3 -21
-10 -32 -10 -46 -1 -20 12 -80 6 -80 -9 0 -5 -15 -9 -34 -9 -41 0 -81 -14
-104 -36 -14 -15 -17 -15 -28 1 -14 19 -74 31 -74 15 0 -6 7 -10 16 -10 8 0
12 -5 9 -10 -4 -7 -11 -8 -18 -1 -15 11 -148 18 -164 8 -7 -4 -9 -15 -6 -23 4
-12 15 -15 40 -11 24 4 36 2 40 -8 4 -11 15 -13 44 -9 49 8 51 -6 7 -46 -40
-36 -48 -37 -48 -7 0 16 -6 23 -21 23 -14 0 -19 -5 -16 -17 3 -10 -1 -20 -9
-23 -8 -3 -14 -21 -15 -43 -1 -34 -2 -35 -9 -13 -8 25 -8 25 -11 -5 -1 -16 -2
-42 -1 -56 1 -16 -4 -29 -13 -33 -10 -3 -15 -19 -15 -43 0 -41 -14 -72 -26
-60 -9 9 -9 461 0 476 8 12 -11 24 -24 16 -5 -3 -10 1 -10 9 0 31 -70 36 -526
36 -408 0 -453 -2 -465 -17z m1692 -163 c30 -6 84 -19 121 -31 65 -20 66 -21
63 -52 -3 -36 -40 -134 -58 -156 -10 -12 -7 -13 21 -8 21 4 31 3 27 -3 -3 -6
-1 -10 4 -10 6 0 11 -7 11 -15 0 -17 -16 -20 -25 -5 -3 6 -17 10 -31 10 -13 0
-24 4 -24 9 0 5 -10 11 -22 14 -13 3 -43 13 -67 22 -31 11 -73 15 -148 14 -99
-1 -106 -3 -150 -33 -64 -43 -81 -70 -97 -155 -14 -70 -11 -129 9 -218 6 -25
42 -63 95 -99 42 -28 158 -43 203 -25 27 11 28 13 25 78 l-3 68 -66 -3 c-49
-3 -73 0 -91 12 -24 16 -25 20 -20 94 2 42 8 81 12 85 6 7 317 13 388 8 9 -1
12 -53 12 -225 0 -123 -3 -232 -6 -240 -3 -9 -34 -29 -69 -45 -106 -49 -289
-62 -433 -30 -55 12 -121 45 -129 64 -3 8 -10 15 -17 15 -42 0 -130 130 -156
230 -7 25 -15 52 -19 60 -9 18 6 196 18 225 43 99 80 163 115 198 49 50 83 77
95 77 5 0 11 7 15 15 3 8 14 15 24 15 10 0 23 5 29 11 32 32 237 49 344 29z
m-1356 -32 c14 -6 25 -14 25 -18 0 -7 110 -178 191 -297 27 -39 49 -75 50 -80
1 -17 105 -158 114 -156 6 2 11 104 13 275 2 202 5 274 15 280 6 4 47 8 89 8
66 0 79 -3 88 -19 13 -25 14 -850 0 -871 -13 -20 -155 -26 -190 -8 -13 7 -53
56 -87 108 -34 52 -71 106 -81 120 -11 14 -45 66 -76 117 -31 51 -63 99 -70
106 -8 7 -26 37 -41 66 -15 28 -36 56 -46 61 -17 10 -18 -2 -18 -277 0 -330 5
-313 -94 -313 -106 0 -97 -42 -97 453 0 324 3 436 12 445 16 16 168 16 203 0z
m1346 -235 c26 -16 31 -16 39 -3 5 8 10 11 10 5 0 -36 -49 -58 -112 -50 -36 5
-53 3 -59 -6 -6 -10 -10 -10 -23 0 -8 7 -24 10 -36 6 -11 -4 -20 -2 -20 4 0 6
-7 11 -15 11 -8 0 -15 9 -15 20 0 17 6 20 48 18 36 -1 39 -2 15 -5 -18 -2 -33
-9 -33 -15 0 -7 15 -9 40 -5 22 3 40 1 40 -4 0 -5 19 -9 42 -9 46 0 48 8 2 13
-17 2 -36 7 -44 12 -11 7 -10 10 6 16 34 13 85 10 115 -8z m173 -29 c3 -9 6
-19 6 -24 0 -14 -32 -21 -46 -9 -7 6 -23 8 -36 3 -20 -6 -21 -5 -9 10 7 9 22
16 32 16 10 0 21 5 24 10 9 15 22 12 29 -6z m-410 -9 c8 -9 19 -16 23 -15 9 0
8 -29 -2 -52 -4 -10 -12 -15 -17 -12 -6 4 -14 0 -19 -7 -4 -7 -11 -10 -15 -6
-4 3 -1 13 6 22 8 10 9 15 1 15 -15 0 -14 37 2 43 9 4 8 8 -3 16 -9 6 -10 11
-3 11 6 0 18 -7 27 -15z m-47 -47 c1 -13 2 -68 3 -123 0 -55 4 -95 8 -88 5 9
21 -4 47 -37 42 -54 85 -71 123 -51 27 14 36 0 19 -30 -11 -22 -16 -24 -74
-18 -52 5 -68 11 -101 40 -46 41 -64 106 -51 184 4 28 8 71 8 98 1 47 15 67
18 25z m126 -645 c-7 -2 -21 -2 -30 0 -10 3 -4 5 12 5 17 0 24 -2 18 -5z"/>
<path d="M5520 6401 c0 -6 17 -12 38 -14 20 -2 3 -2 -38 0 -65 4 -78 2 -93
-14 -15 -17 -15 -22 -2 -39 14 -19 14 -19 16 1 1 11 1 23 0 28 0 4 53 7 119 7
94 0 120 3 120 14 0 9 -20 15 -61 20 -83 8 -99 8 -99 -3z"/>
<path d="M5920 6400 c0 -5 18 -10 40 -10 29 0 40 -4 40 -15 0 -11 -12 -15 -42
-16 l-43 -2 50 -7 c72 -12 115 -11 115 0 0 6 -15 11 -32 11 -18 1 -25 3 -15 6
22 6 12 23 -14 23 -10 0 -19 5 -19 10 0 6 -18 10 -40 10 -22 0 -40 -4 -40 -10z"/>
<path d="M6160 6385 c0 -19 7 -26 33 -33 37 -11 47 -4 51 32 3 25 1 26 -40 26
-40 0 -44 -2 -44 -25z"/>
<path d="M6333 6395 c-15 -17 -17 -95 -3 -95 6 0 10 13 10 29 0 24 5 30 30 35
31 6 42 26 15 26 -8 0 -15 5 -15 10 0 15 -23 12 -37 -5z"/>
<path d="M8783 6383 c-10 -3 -13 -53 -13 -199 0 -211 1 -214 55 -200 l25 6 0
188 c0 133 -4 192 -12 200 -12 12 -33 14 -55 5z"/>
<path d="M9256 6382 c-7 -12 -9 -379 -2 -390 10 -16 178 -22 211 -7 54 22 64
42 67 137 3 73 0 89 -16 107 -29 32 -79 45 -120 30 -54 -20 -66 -9 -66 60 0
44 -4 60 -16 65 -22 9 -52 7 -58 -2z m183 -198 c27 -35 27 -88 0 -126 -19 -26
-26 -29 -53 -24 -40 8 -56 30 -56 79 0 47 14 75 43 87 35 14 44 12 66 -16z"/>
<path d="M5798 6373 c23 -2 61 -2 85 0 23 2 4 4 -43 4 -47 0 -66 -2 -42 -4z"/>
<path d="M6098 6373 c12 -2 30 -2 40 0 9 3 -1 5 -23 4 -22 0 -30 -2 -17 -4z"/>
<path d="M5520 6341 c0 -15 9 -20 45 -23 25 -2 45 1 45 5 0 5 3 6 8 4 4 -3 16
-1 27 4 18 7 18 8 -5 9 -23 1 -23 2 -5 10 14 6 -1 9 -47 9 -60 1 -68 -1 -68
-18z"/>
<path d="M5680 6345 c0 -9 9 -15 25 -15 16 0 25 6 25 15 0 9 -9 15 -25 15 -16
0 -25 -6 -25 -15z"/>
<path d="M5740 6347 c0 -11 14 -12 66 -5 90 10 92 18 6 18 -53 0 -72 -3 -72
-13z"/>
<path d="M6313 6283 c-19 -7 -16 -27 7 -48 24 -22 26 -35 4 -35 -11 0 -14 -5
-10 -16 3 -9 6 -20 6 -25 0 -6 4 -8 9 -5 5 3 12 -1 15 -10 8 -22 8 -24 -8 -24
-16 0 -26 -43 -26 -111 0 -43 3 -49 21 -49 20 0 21 -3 14 -80 -6 -64 -4 -80 6
-80 14 0 25 101 22 190 -1 19 -2 93 -2 164 l0 128 -27 -6 c-17 -5 -23 -3 -19
4 7 11 6 11 -12 3z"/>
<path d="M8980 6256 c-23 -9 -35 -19 -35 -32 0 -20 10 -21 75 -9 24 4 41 2 55
-9 32 -24 8 -50 -56 -58 -94 -14 -136 -85 -86 -144 18 -21 32 -27 58 -26 19 0
66 2 104 4 l70 3 3 104 c3 118 -6 143 -63 167 -41 17 -78 17 -125 0z m115
-156 c8 -13 -20 -59 -41 -67 -8 -3 -25 -2 -39 1 -50 13 -16 76 41 76 18 0 36
-5 39 -10z"/>
<path d="M8338 6099 c-17 -9 -18 -39 -18 -393 l0 -384 23 -6 c12 -3 43 -6 69
-6 67 0 72 13 65 180 -6 165 -3 182 38 226 50 53 118 46 150 -16 12 -23 15
-67 15 -203 0 -150 2 -176 16 -181 23 -9 117 -7 132 3 10 6 12 53 10 218 l-3
210 -28 42 c-38 57 -80 81 -144 81 -61 0 -95 -11 -136 -46 -20 -17 -33 -22
-40 -15 -6 6 -10 69 -11 143 -1 73 -5 139 -9 146 -10 15 -104 16 -129 1z"/>
<path d="M3002 6008 c-5 -7 -12 -26 -15 -43 -3 -16 -12 -50 -20 -75 -54 -162
-58 -184 -40 -198 12 -9 45 -12 103 -10 l85 3 3 38 c2 21 -2 44 -7 51 -15 17
-40 98 -51 165 -12 71 -34 98 -58 69z"/>
<path d="M6840 6009 c-46 -13 -70 -43 -70 -88 0 -46 -8 -57 -48 -66 -23 -5
-34 -14 -38 -31 -11 -44 2 -70 43 -80 l38 -9 5 -172 c4 -154 7 -174 26 -200
33 -45 89 -67 166 -66 84 1 102 13 93 62 -8 45 -11 48 -60 55 -22 4 -44 11
-50 17 -5 5 -11 72 -13 148 -4 156 2 171 63 171 55 0 65 8 65 51 0 33 -4 41
-26 49 -14 6 -38 10 -53 10 -41 0 -51 17 -51 86 0 77 -11 84 -90 63z"/>
<path d="M6311 5864 c0 -11 3 -14 6 -6 3 7 2 16 -1 19 -3 4 -6 -2 -5 -13z"/>
<path d="M7350 5864 c-89 -24 -138 -62 -178 -139 -23 -44 -26 -62 -27 -150 0
-86 3 -106 24 -145 39 -76 51 -84 164 -125 56 -21 119 -17 219 15 101 31 119
58 73 105 -30 29 -61 32 -95 8 -37 -26 -146 -25 -182 2 -33 24 -50 65 -36 88
8 15 29 17 159 17 90 0 159 4 171 11 19 10 20 17 13 87 -9 99 -23 131 -76 174
-69 56 -146 73 -229 52z m105 -109 c37 -18 58 -52 53 -86 -3 -23 -5 -24 -98
-24 l-95 0 -3 29 c-3 20 4 36 24 57 23 24 37 31 77 38 5 0 24 -6 42 -14z"/>
<path d="M7970 5865 c-30 -9 -80 -32 -110 -53 -74 -50 -101 -106 -108 -223 -4
-77 -2 -92 20 -141 34 -74 93 -121 179 -142 82 -20 96 -20 175 1 78 21 90 43
53 99 -20 29 -28 34 -49 29 -159 -41 -231 22 -222 193 2 25 14 44 49 79 l48
46 76 -6 c75 -6 76 -6 97 23 35 47 29 66 -25 85 -70 24 -121 26 -183 10z"/>
<path d="M6321 5650 c-8 -11 -7 -250 0 -250 5 0 9 6 9 13 1 8 4 7 9 -3 5 -8
12 -50 16 -92 6 -67 5 -78 -8 -78 -9 0 -18 10 -20 23 -3 16 -5 14 -6 -9 0 -20
4 -31 12 -30 6 0 13 -3 14 -9 2 -5 -3 -10 -10 -10 -17 -1 -37 -14 -37 -26 0
-5 12 -10 28 -10 16 -1 20 -3 10 -6 -35 -9 -20 -33 21 -33 l39 0 -2 55 c0 30
-4 55 -7 55 -4 0 -12 53 -19 117 -10 87 -10 118 -1 121 14 5 15 162 1 162 -6
0 -10 -33 -10 -80 0 -63 -3 -80 -15 -80 -11 0 -15 19 -18 88 -1 48 -4 85 -6
82z m36 -506 c-3 -3 -12 -4 -19 -1 -8 3 -5 6 6 6 11 1 17 -2 13 -5z"/>
<path d="M5418 5378 c-7 -20 3 -88 13 -88 5 0 9 23 9 50 0 46 -12 66 -22 38z"/>
<path d="M6138 5249 c-26 -10 -26 -11 -12 -45 8 -19 12 -39 9 -44 -4 -6 1 -10
9 -10 9 0 16 5 16 10 0 6 23 10 50 10 28 0 50 4 50 10 0 14 -35 30 -72 31 -32
2 -32 2 7 8 26 4 40 11 40 21 0 18 -57 24 -97 9z"/>
<path d="M6000 5201 c0 -17 -5 -19 -36 -14 -35 6 -60 -9 -48 -29 6 -9 65 -11
88 -2 18 7 23 64 6 64 -5 0 -10 -9 -10 -19z"/>
<path d="M5428 5200 c-4 -8 -6 -22 -5 -32 0 -15 18 -16 166 -15 l166 1 -157 3
-157 3 -3 28 c-3 18 -6 22 -10 12z"/>
<path d="M5670 5200 c-8 -5 -27 -10 -42 -10 -16 0 -28 -4 -28 -8 0 -4 36 -9
81 -11 73 -2 80 -1 77 16 -4 21 -63 30 -88 13z"/>
<path d="M6195 5150 c15 -6 4 -9 -40 -12 l-60 -4 71 -2 c57 -2 71 1 71 13 0
10 -10 15 -31 14 -26 0 -28 -2 -11 -9z"/>
<path d="M5568 5133 c94 -2 250 -2 345 0 94 1 17 3 -173 3 -190 0 -267 -2
-172 -3z"/>
<path d="M6613 4719 c-33 -12 -31 -56 1 -65 30 -7 68 12 64 33 -5 25 -40 42
-65 32z"/>
<path d="M5086 4692 c-3 -5 -50 -7 -105 -4 -54 2 -116 1 -136 -2 -32 -6 -36
-10 -33 -34 2 -22 9 -28 33 -30 16 -2 33 -9 37 -15 4 -7 8 -51 8 -98 0 -99 12
-120 55 -101 24 11 25 16 25 101 0 100 4 107 65 113 l40 3 5 -100 c5 -107 11
-125 39 -125 28 0 41 21 41 66 0 54 30 94 57 78 13 -8 19 -28 23 -68 5 -55 18
-75 47 -76 36 0 46 133 14 186 -19 32 -60 48 -98 38 -23 -6 -40 11 -45 46 -2
20 -10 26 -35 28 -17 2 -34 -1 -37 -6z"/>
<path d="M6472 4688 c-7 -7 -12 -22 -12 -35 0 -13 -3 -24 -7 -24 -5 -1 -27 -3
-51 -4 -51 -4 -77 -24 -93 -72 -16 -50 4 -119 42 -138 32 -17 164 -14 182 4
11 11 11 256 1 273 -8 12 -49 9 -62 -4z m-16 -153 c4 -8 3 -26 0 -40 -9 -34
-52 -35 -68 -1 -6 14 -8 32 -5 40 8 21 66 21 73 1z"/>
<path d="M7916 4685 c-3 -9 -6 -70 -6 -135 0 -94 3 -122 16 -134 33 -33 57
-10 64 60 3 39 10 60 23 68 27 17 52 -4 55 -50 4 -61 10 -81 28 -88 32 -12 44
13 44 91 0 70 -2 77 -30 105 -25 25 -36 29 -63 24 -39 -7 -49 0 -62 39 -12 35
-58 48 -69 20z"/>
<path d="M8741 4677 c-5 -13 -6 -76 -3 -141 6 -100 10 -121 25 -130 35 -21 47
16 47 145 0 65 -3 124 -6 133 -10 25 -53 20 -63 -7z"/>
<path d="M5806 4665 c-49 -30 -65 -58 -66 -113 0 -87 43 -136 137 -156 38 -9
123 24 123 47 0 24 -33 46 -55 37 -42 -18 -83 -11 -104 16 -26 33 -26 62 -1
94 17 22 26 25 87 25 62 0 68 2 71 21 2 16 -6 25 -31 38 -51 23 -114 20 -161
-9z"/>
<path d="M7454 4680 c-12 -4 -31 -21 -43 -36 -40 -51 -4 -108 82 -129 32 -8
43 -15 45 -32 3 -20 -1 -23 -33 -23 -20 0 -45 4 -55 10 -14 7 -23 6 -34 -6
-24 -23 -4 -51 46 -65 53 -14 100 -1 153 41 l38 31 26 -25 c14 -13 36 -29 48
-35 53 -27 147 1 141 42 -2 17 -9 22 -33 21 -16 0 -37 -4 -46 -8 -23 -10 -51
21 -47 53 3 24 7 26 67 31 71 5 83 18 51 48 -55 52 -146 33 -196 -40 -24 -34
-29 -37 -43 -24 -9 7 -41 23 -71 34 -31 11 -56 27 -58 36 -3 13 7 16 57 16 59
0 61 1 61 25 0 18 -7 28 -26 35 -31 12 -101 12 -130 0z"/>
<path d="M5419 4613 c-78 -48 -77 -158 2 -199 51 -26 139 -13 139 21 0 21 -19
29 -63 26 -28 -1 -38 2 -35 11 3 7 22 14 44 16 73 5 84 10 84 40 0 37 -26 71
-66 88 -43 18 -73 17 -105 -3z"/>
<path d="M6095 4615 c-32 -16 -75 -74 -75 -101 0 -27 40 -83 70 -99 64 -33
129 -13 170 54 l28 44 -26 42 c-14 23 -33 47 -43 53 -32 20 -92 24 -124 7z
m76 -65 c21 -12 25 -41 9 -71 -12 -21 -40 -25 -58 -7 -18 18 -15 65 6 77 21
13 20 13 43 1z"/>
<path d="M6790 4621 l-65 -6 -3 -96 c-3 -107 7 -131 47 -109 16 8 21 21 21 53
0 52 24 89 53 85 18 -2 22 -11 25 -48 4 -69 10 -88 33 -95 37 -12 49 11 49 94
0 67 -3 80 -22 99 -29 26 -56 30 -138 23z"/>
<path d="M7065 4622 c-29 -6 -44 -21 -66 -64 -18 -36 -19 -40 -3 -71 26 -51
48 -66 100 -69 69 -4 57 -22 -18 -28 -52 -4 -63 -8 -66 -24 -6 -30 26 -46 93
-46 108 0 135 38 135 190 0 72 -4 102 -12 105 -21 6 -142 12 -163 7z m89 -88
c8 -20 -3 -41 -23 -47 -25 -6 -51 10 -51 33 0 36 61 47 74 14z"/>
<path d="M8270 4623 c-42 -13 -60 -29 -75 -66 -15 -38 -15 -44 1 -85 17 -46
56 -72 107 -72 39 0 93 27 111 55 20 30 42 32 51 4 16 -49 103 -73 168 -45 46
19 75 83 57 126 -22 53 -48 78 -88 85 -51 8 -90 -8 -129 -53 l-33 -37 -32 38
c-39 44 -94 65 -138 50z m330 -83 c25 -25 25 -32 1 -61 -16 -20 -23 -22 -38
-13 -22 13 -30 73 -11 85 19 13 26 11 48 -11z m-262 -25 c4 -35 -21 -59 -48
-45 -43 23 -29 84 18 78 22 -2 28 -9 30 -33z"/>
<path d="M6600 4601 c-12 -23 -13 -160 -1 -179 5 -8 21 -12 37 -10 l29 3 3 88
c3 93 -5 117 -39 117 -10 0 -23 -9 -29 -19z"/>
</g>
</svg>
